<svg xmlns="http://www.w3.org/2000/svg" xmlns:xlink="http://www.w3.org/1999/xlink" width="50" zoomAndPan="magnify" viewBox="0 0 37.5 37.499999" height="50" preserveAspectRatio="xMidYMid meet" version="1.0"><defs><clipPath id="a54ceef0a0"><path d="M 0 0 L 37.007812 0 L 37.007812 37.007812 L 0 37.007812 Z M 0 0 " clip-rule="nonzero"/></clipPath><clipPath id="97e222f6f2"><path d="M 18.503906 0 C 8.285156 0 0 8.285156 0 18.503906 C 0 28.722656 8.285156 37.007812 18.503906 37.007812 C 28.722656 37.007812 37.007812 28.722656 37.007812 18.503906 C 37.007812 8.285156 28.722656 0 18.503906 0 Z M 18.503906 0 " clip-rule="nonzero"/></clipPath><clipPath id="bed2c8745c"><path d="M 0 0 L 37.007812 0 L 37.007812 37.007812 L 0 37.007812 Z M 0 0 " clip-rule="nonzero"/></clipPath><clipPath id="1534da8750"><path d="M 18.503906 0 C 8.285156 0 0 8.285156 0 18.503906 C 0 28.722656 8.285156 37.007812 18.503906 37.007812 C 28.722656 37.007812 37.007812 28.722656 37.007812 18.503906 C 37.007812 8.285156 28.722656 0 18.503906 0 Z M 18.503906 0 " clip-rule="nonzero"/></clipPath><clipPath id="12ea823e08"><rect x="0" width="38" y="0" height="38"/></clipPath></defs><g clip-path="url(#a54ceef0a0)"><g clip-path="url(#97e222f6f2)"><g transform="matrix(1, 0, 0, 1, 0, 0)"><g clip-path="url(#12ea823e08)"><g clip-path="url(#bed2c8745c)"><g clip-path="url(#1534da8750)"><path fill="#ff66c4" d="M 0 0 L 37.007812 0 L 37.007812 37.007812 L 0 37.007812 Z M 0 0 " fill-opacity="1" fill-rule="nonzero"/></g></g></g></g></g></g><path fill="#ffffff" d="M 20.644531 14.78125 C 27.085938 3.621094 9.90625 3.621094 16.347656 14.78125 C 9.90625 3.621094 1.316406 18.5 14.199219 18.5 C 1.316406 18.5 9.90625 33.375 16.347656 22.21875 C 9.90625 33.375 27.085938 33.375 20.644531 22.21875 C 27.085938 33.375 35.675781 18.5 22.789062 18.5 C 35.675781 18.5 27.085938 3.621094 20.644531 14.78125 Z M 20.644531 14.78125 " fill-opacity="1" fill-rule="nonzero"/><path fill="#ffffff" d="M 21.621094 18.5 C 21.621094 18.914062 21.542969 19.3125 21.382812 19.695312 C 21.226562 20.078125 21 20.417969 20.707031 20.710938 C 20.414062 21.003906 20.074219 21.230469 19.691406 21.386719 C 19.308594 21.546875 18.910156 21.625 18.496094 21.625 C 18.082031 21.625 17.683594 21.546875 17.300781 21.386719 C 16.917969 21.230469 16.578125 21.003906 16.285156 20.710938 C 15.992188 20.417969 15.765625 20.078125 15.605469 19.695312 C 15.449219 19.3125 15.367188 18.914062 15.367188 18.5 C 15.367188 18.085938 15.449219 17.6875 15.605469 17.304688 C 15.765625 16.921875 15.992188 16.582031 16.285156 16.289062 C 16.578125 15.996094 16.917969 15.769531 17.300781 15.609375 C 17.683594 15.453125 18.082031 15.371094 18.496094 15.371094 C 18.910156 15.371094 19.308594 15.453125 19.691406 15.609375 C 20.074219 15.769531 20.414062 15.996094 20.707031 16.289062 C 21 16.582031 21.226562 16.921875 21.382812 17.304688 C 21.542969 17.6875 21.621094 18.085938 21.621094 18.5 Z M 21.621094 18.5 " fill-opacity="1" fill-rule="nonzero"/></svg>